<svg xmlns="http://www.w3.org/2000/svg" width="880" height="400" version="1.1"><text x="800" y="35" dominant-baseline="baseline" transform="rotate(0, 800, 35)" style="font-family:Arial;font-size:12px;text-anchor:middle">poly(5) = &apos;1&apos;</text><line x1="800" x2="800" y1="43" y2="50" style="stroke:#000;stroke-linecap:square;stroke-width:2"/><ellipse cx="800" cy="40" rx="3" ry="3" style="fill-opacity:0;fill:#000;stroke:#000;stroke-width:2"/><text x="72" y="210" dominant-baseline="middle" transform="rotate(0, 72, 210)" style="font-family:Arial;font-size:12px;text-anchor:end">data_in</text><line x1="83" x2="140" y1="210" y2="210" style="stroke:#000;stroke-linecap:square;stroke-width:2"/><ellipse cx="80" cy="210" rx="3" ry="3" style="fill-opacity:0;fill:#000;stroke:#000;stroke-width:2"/><text x="72" y="300" dominant-baseline="middle" transform="rotate(0, 72, 300)" style="font-family:Arial;font-size:12px;text-anchor:end">reset</text><line x1="83" x2="90" y1="300" y2="300" style="stroke:#000;stroke-linecap:square;stroke-width:2"/><ellipse cx="80" cy="300" rx="3" ry="3" style="fill-opacity:0;fill:#000;stroke:#000;stroke-width:2"/><text x="72" y="280" dominant-baseline="middle" transform="rotate(0, 72, 280)" style="font-family:Arial;font-size:12px;text-anchor:end">clk</text><line x1="83" x2="90" y1="280" y2="280" style="stroke:#000;stroke-linecap:square;stroke-width:2"/><ellipse cx="80" cy="280" rx="3" ry="3" style="fill-opacity:0;fill:#000;stroke:#000;stroke-width:2"/><text x="470" y="355" dominant-baseline="hanging" transform="rotate(0, 470, 355)" style="font-family:Arial;font-size:12px;text-anchor:middle">data_out(1)</text><line x1="470" x2="470" y1="210" y2="347" style="stroke:#000;stroke-linecap:square;stroke-width:2"/><ellipse cx="470" cy="350" rx="3" ry="3" style="fill-opacity:0;fill:#000;stroke:#000;stroke-width:2"/><text x="300" y="355" dominant-baseline="hanging" transform="rotate(0, 300, 355)" style="font-family:Arial;font-size:12px;text-anchor:middle">data_out(0)</text><line x1="300" x2="300" y1="210" y2="347" style="stroke:#000;stroke-linecap:square;stroke-width:2"/><ellipse cx="300" cy="350" rx="3" ry="3" style="fill-opacity:0;fill:#000;stroke:#000;stroke-width:2"/><line x1="290" x2="310" y1="210" y2="210" style="stroke:#000;stroke-linecap:square;stroke-width:2"/><line x1="220" x2="220" y1="230" y2="280" style="stroke:#000;stroke-linecap:square;stroke-width:2"/><line x1="220" x2="230" y1="230" y2="230" style="stroke:#000;stroke-linecap:square;stroke-width:2"/><line x1="260" x2="260" y1="270" y2="300" style="stroke:#000;stroke-linecap:square;stroke-width:2"/><rect width="40" height="60" x="240" y="200" style="fill-opacity:0;fill:#000;stroke:#000;stroke-width:2"/><line x1="230" x2="240" y1="210" y2="210" style="stroke:#000;stroke-linecap:square;stroke-width:2"/><line x1="280" x2="290" y1="210" y2="210" style="stroke:#000;stroke-linecap:square;stroke-width:2"/><path d="M 240,224 L 246,230 L 240,236" style="fill-opacity:0;fill:#000;stroke:#000;stroke-linecap:square;stroke-width:1"/><text x="243" y="210" dominant-baseline="middle" transform="rotate(0, 243, 210)" style="font-family:Arial;font-size:12px;text-anchor:start">D</text><text x="277" y="210" dominant-baseline="middle" transform="rotate(0, 277, 210)" style="font-family:Arial;font-size:12px;text-anchor:end">Q</text><line x1="230" x2="240" y1="230" y2="230" style="stroke:#000;stroke-linecap:square;stroke-width:2"/><line x1="260" x2="260" y1="260" y2="270" style="stroke:#000;stroke-linecap:square;stroke-width:2"/><text x="260" y="257" dominant-baseline="baseline" transform="rotate(0, 260, 257)" style="font-family:Arial;font-size:12px;text-anchor:middle">R</text><line x1="120" x2="120" y1="100" y2="115" style="stroke:#000;stroke-linecap:square;stroke-width:2"/><line x1="140" x2="140" y1="100" y2="115" style="stroke:#000;stroke-linecap:square;stroke-width:2"/><path d="M 120,115 M 110,115 L 150,115 L 150,139 M 110,115 L 110,139 A 5,5 90 0 0 150,139" style="fill-opacity:0;fill:#000;stroke:#000;stroke-linecap:square;stroke-width:2"/><line x1="130" x2="130" y1="160" y2="170" style="stroke:#000;stroke-linecap:square;stroke-width:2"/><line x1="130" x2="130" y1="170" y2="190" style="stroke:#000;stroke-linecap:square;stroke-width:2"/><line x1="130" x2="140" y1="190" y2="190" style="stroke:#000;stroke-linecap:square;stroke-width:2"/><line x1="220" x2="230" y1="210" y2="210" style="stroke:#000;stroke-linecap:square;stroke-width:2"/><line x1="220" x2="220" y1="200" y2="210" style="stroke:#000;stroke-linecap:square;stroke-width:2"/><line x1="210" x2="220" y1="200" y2="200" style="stroke:#000;stroke-linecap:square;stroke-width:2"/><line x1="140" x2="155" y1="190" y2="190" style="stroke:#000;stroke-linecap:square;stroke-width:2"/><line x1="140" x2="155" y1="210" y2="210" style="stroke:#000;stroke-linecap:square;stroke-width:2"/><path d="M 149,190 M 149,180 Q 169,200 149,220 M 157,180 Q 177,200 157,220 M 156,220 Q 191,215 206,200 Q 191,185 156,180" style="fill-opacity:0;fill:#000;stroke:#000;stroke-linecap:square;stroke-width:2"/><line x1="205" x2="210" y1="200" y2="200" style="stroke:#000;stroke-linecap:square;stroke-width:2"/><text x="120" y="35" dominant-baseline="baseline" transform="rotate(0, 120, 35)" style="font-family:Arial;font-size:12px;text-anchor:middle">poly(0)</text><line x1="120" x2="120" y1="43" y2="60" style="stroke:#000;stroke-linecap:square;stroke-width:2"/><ellipse cx="120" cy="40" rx="3" ry="3" style="fill-opacity:0;fill:#000;stroke:#000;stroke-width:2"/><line x1="120" x2="120" y1="60" y2="100" style="stroke:#000;stroke-linecap:square;stroke-width:2"/><line x1="140" x2="140" y1="90" y2="100" style="stroke:#000;stroke-linecap:square;stroke-width:2"/><line x1="90" x2="730" y1="280" y2="280" style="stroke:#000;stroke-linecap:square;stroke-width:2"/><line x1="390" x2="390" y1="230" y2="280" style="stroke:#000;stroke-linecap:square;stroke-width:2"/><line x1="390" x2="400" y1="230" y2="230" style="stroke:#000;stroke-linecap:square;stroke-width:2"/><line x1="560" x2="560" y1="230" y2="280" style="stroke:#000;stroke-linecap:square;stroke-width:2"/><line x1="560" x2="570" y1="230" y2="230" style="stroke:#000;stroke-linecap:square;stroke-width:2"/><line x1="730" x2="730" y1="230" y2="280" style="stroke:#000;stroke-linecap:square;stroke-width:2"/><line x1="730" x2="740" y1="230" y2="230" style="stroke:#000;stroke-linecap:square;stroke-width:2"/><line x1="770" x2="770" y1="270" y2="300" style="stroke:#000;stroke-linecap:square;stroke-width:2"/><line x1="600" x2="600" y1="270" y2="300" style="stroke:#000;stroke-linecap:square;stroke-width:2"/><line x1="430" x2="430" y1="270" y2="300" style="stroke:#000;stroke-linecap:square;stroke-width:2"/><line x1="90" x2="770" y1="300" y2="300" style="stroke:#000;stroke-linecap:square;stroke-width:2"/><line x1="460" x2="480" y1="210" y2="210" style="stroke:#000;stroke-linecap:square;stroke-width:2"/><rect width="40" height="60" x="410" y="200" style="fill-opacity:0;fill:#000;stroke:#000;stroke-width:2"/><line x1="400" x2="410" y1="210" y2="210" style="stroke:#000;stroke-linecap:square;stroke-width:2"/><line x1="450" x2="460" y1="210" y2="210" style="stroke:#000;stroke-linecap:square;stroke-width:2"/><path d="M 410,224 L 416,230 L 410,236" style="fill-opacity:0;fill:#000;stroke:#000;stroke-linecap:square;stroke-width:1"/><text x="413" y="210" dominant-baseline="middle" transform="rotate(0, 413, 210)" style="font-family:Arial;font-size:12px;text-anchor:start">D</text><text x="447" y="210" dominant-baseline="middle" transform="rotate(0, 447, 210)" style="font-family:Arial;font-size:12px;text-anchor:end">Q</text><line x1="400" x2="410" y1="230" y2="230" style="stroke:#000;stroke-linecap:square;stroke-width:2"/><line x1="430" x2="430" y1="260" y2="270" style="stroke:#000;stroke-linecap:square;stroke-width:2"/><text x="430" y="257" dominant-baseline="baseline" transform="rotate(0, 430, 257)" style="font-family:Arial;font-size:12px;text-anchor:middle">R</text><line x1="290" x2="290" y1="100" y2="115" style="stroke:#000;stroke-linecap:square;stroke-width:2"/><line x1="310" x2="310" y1="100" y2="115" style="stroke:#000;stroke-linecap:square;stroke-width:2"/><path d="M 290,115 M 280,115 L 320,115 L 320,139 M 280,115 L 280,139 A 5,5 90 0 0 320,139" style="fill-opacity:0;fill:#000;stroke:#000;stroke-linecap:square;stroke-width:2"/><line x1="300" x2="300" y1="160" y2="170" style="stroke:#000;stroke-linecap:square;stroke-width:2"/><line x1="300" x2="300" y1="170" y2="190" style="stroke:#000;stroke-linecap:square;stroke-width:2"/><line x1="300" x2="310" y1="190" y2="190" style="stroke:#000;stroke-linecap:square;stroke-width:2"/><line x1="390" x2="400" y1="210" y2="210" style="stroke:#000;stroke-linecap:square;stroke-width:2"/><line x1="390" x2="390" y1="200" y2="210" style="stroke:#000;stroke-linecap:square;stroke-width:2"/><line x1="380" x2="390" y1="200" y2="200" style="stroke:#000;stroke-linecap:square;stroke-width:2"/><line x1="310" x2="325" y1="190" y2="190" style="stroke:#000;stroke-linecap:square;stroke-width:2"/><line x1="310" x2="325" y1="210" y2="210" style="stroke:#000;stroke-linecap:square;stroke-width:2"/><path d="M 319,190 M 319,180 Q 339,200 319,220 M 327,180 Q 347,200 327,220 M 326,220 Q 361,215 376,200 Q 361,185 326,180" style="fill-opacity:0;fill:#000;stroke:#000;stroke-linecap:square;stroke-width:2"/><line x1="375" x2="380" y1="200" y2="200" style="stroke:#000;stroke-linecap:square;stroke-width:2"/><text x="290" y="35" dominant-baseline="baseline" transform="rotate(0, 290, 35)" style="font-family:Arial;font-size:12px;text-anchor:middle">poly(1)</text><line x1="290" x2="290" y1="43" y2="60" style="stroke:#000;stroke-linecap:square;stroke-width:2"/><ellipse cx="290" cy="40" rx="3" ry="3" style="fill-opacity:0;fill:#000;stroke:#000;stroke-width:2"/><line x1="290" x2="290" y1="60" y2="100" style="stroke:#000;stroke-linecap:square;stroke-width:2"/><line x1="310" x2="310" y1="90" y2="100" style="stroke:#000;stroke-linecap:square;stroke-width:2"/><line x1="630" x2="630" y1="100" y2="115" style="stroke:#000;stroke-linecap:square;stroke-width:2"/><line x1="650" x2="650" y1="100" y2="115" style="stroke:#000;stroke-linecap:square;stroke-width:2"/><path d="M 630,115 M 620,115 L 660,115 L 660,139 M 620,115 L 620,139 A 5,5 90 0 0 660,139" style="fill-opacity:0;fill:#000;stroke:#000;stroke-linecap:square;stroke-width:2"/><line x1="640" x2="640" y1="160" y2="170" style="stroke:#000;stroke-linecap:square;stroke-width:2"/><line x1="650" x2="665" y1="190" y2="190" style="stroke:#000;stroke-linecap:square;stroke-width:2"/><line x1="650" x2="665" y1="210" y2="210" style="stroke:#000;stroke-linecap:square;stroke-width:2"/><path d="M 659,190 M 659,180 Q 679,200 659,220 M 667,180 Q 687,200 667,220 M 666,220 Q 701,215 716,200 Q 701,185 666,180" style="fill-opacity:0;fill:#000;stroke:#000;stroke-linecap:square;stroke-width:2"/><line x1="715" x2="720" y1="200" y2="200" style="stroke:#000;stroke-linecap:square;stroke-width:2"/><line x1="640" x2="640" y1="170" y2="190" style="stroke:#000;stroke-linecap:square;stroke-width:2"/><line x1="630" x2="650" y1="210" y2="210" style="stroke:#000;stroke-linecap:square;stroke-width:2"/><line x1="640" x2="650" y1="190" y2="190" style="stroke:#000;stroke-linecap:square;stroke-width:2"/><rect width="40" height="60" x="580" y="200" style="fill-opacity:0;fill:#000;stroke:#000;stroke-width:2"/><line x1="570" x2="580" y1="210" y2="210" style="stroke:#000;stroke-linecap:square;stroke-width:2"/><line x1="620" x2="630" y1="210" y2="210" style="stroke:#000;stroke-linecap:square;stroke-width:2"/><path d="M 580,224 L 586,230 L 580,236" style="fill-opacity:0;fill:#000;stroke:#000;stroke-linecap:square;stroke-width:1"/><text x="583" y="210" dominant-baseline="middle" transform="rotate(0, 583, 210)" style="font-family:Arial;font-size:12px;text-anchor:start">D</text><text x="617" y="210" dominant-baseline="middle" transform="rotate(0, 617, 210)" style="font-family:Arial;font-size:12px;text-anchor:end">Q</text><line x1="570" x2="580" y1="230" y2="230" style="stroke:#000;stroke-linecap:square;stroke-width:2"/><line x1="600" x2="600" y1="260" y2="270" style="stroke:#000;stroke-linecap:square;stroke-width:2"/><text x="600" y="257" dominant-baseline="baseline" transform="rotate(0, 600, 257)" style="font-family:Arial;font-size:12px;text-anchor:middle">R</text><line x1="730" x2="740" y1="210" y2="210" style="stroke:#000;stroke-linecap:square;stroke-width:2"/><line x1="720" x2="730" y1="200" y2="200" style="stroke:#000;stroke-linecap:square;stroke-width:2"/><line x1="730" x2="730" y1="200" y2="210" style="stroke:#000;stroke-linecap:square;stroke-width:2"/><line x1="460" x2="460" y1="100" y2="115" style="stroke:#000;stroke-linecap:square;stroke-width:2"/><line x1="480" x2="480" y1="100" y2="115" style="stroke:#000;stroke-linecap:square;stroke-width:2"/><path d="M 460,115 M 450,115 L 490,115 L 490,139 M 450,115 L 450,139 A 5,5 90 0 0 490,139" style="fill-opacity:0;fill:#000;stroke:#000;stroke-linecap:square;stroke-width:2"/><line x1="470" x2="470" y1="160" y2="170" style="stroke:#000;stroke-linecap:square;stroke-width:2"/><line x1="470" x2="470" y1="170" y2="190" style="stroke:#000;stroke-linecap:square;stroke-width:2"/><line x1="800" x2="810" y1="210" y2="210" style="stroke:#000;stroke-linecap:square;stroke-width:2"/><line x1="470" x2="480" y1="190" y2="190" style="stroke:#000;stroke-linecap:square;stroke-width:2"/><rect width="40" height="60" x="750" y="200" style="fill-opacity:0;fill:#000;stroke:#000;stroke-width:2"/><line x1="740" x2="750" y1="210" y2="210" style="stroke:#000;stroke-linecap:square;stroke-width:2"/><line x1="790" x2="800" y1="210" y2="210" style="stroke:#000;stroke-linecap:square;stroke-width:2"/><path d="M 750,224 L 756,230 L 750,236" style="fill-opacity:0;fill:#000;stroke:#000;stroke-linecap:square;stroke-width:1"/><text x="753" y="210" dominant-baseline="middle" transform="rotate(0, 753, 210)" style="font-family:Arial;font-size:12px;text-anchor:start">D</text><text x="787" y="210" dominant-baseline="middle" transform="rotate(0, 787, 210)" style="font-family:Arial;font-size:12px;text-anchor:end">Q</text><line x1="740" x2="750" y1="230" y2="230" style="stroke:#000;stroke-linecap:square;stroke-width:2"/><line x1="770" x2="770" y1="260" y2="270" style="stroke:#000;stroke-linecap:square;stroke-width:2"/><text x="770" y="257" dominant-baseline="baseline" transform="rotate(0, 770, 257)" style="font-family:Arial;font-size:12px;text-anchor:middle">R</text><text x="640" y="355" dominant-baseline="hanging" transform="rotate(0, 640, 355)" style="font-family:Arial;font-size:12px;text-anchor:middle">data_out(2)</text><line x1="640" x2="640" y1="210" y2="347" style="stroke:#000;stroke-linecap:square;stroke-width:2"/><ellipse cx="640" cy="350" rx="3" ry="3" style="fill-opacity:0;fill:#000;stroke:#000;stroke-width:2"/><text x="810" y="355" dominant-baseline="hanging" transform="rotate(0, 810, 355)" style="font-family:Arial;font-size:12px;text-anchor:middle">data_out(3)</text><line x1="810" x2="810" y1="210" y2="347" style="stroke:#000;stroke-linecap:square;stroke-width:2"/><ellipse cx="810" cy="350" rx="3" ry="3" style="fill-opacity:0;fill:#000;stroke:#000;stroke-width:2"/><line x1="560" x2="570" y1="210" y2="210" style="stroke:#000;stroke-linecap:square;stroke-width:2"/><line x1="560" x2="560" y1="200" y2="210" style="stroke:#000;stroke-linecap:square;stroke-width:2"/><line x1="550" x2="560" y1="200" y2="200" style="stroke:#000;stroke-linecap:square;stroke-width:2"/><line x1="480" x2="495" y1="190" y2="190" style="stroke:#000;stroke-linecap:square;stroke-width:2"/><line x1="480" x2="495" y1="210" y2="210" style="stroke:#000;stroke-linecap:square;stroke-width:2"/><path d="M 489,190 M 489,180 Q 509,200 489,220 M 497,180 Q 517,200 497,220 M 496,220 Q 531,215 546,200 Q 531,185 496,180" style="fill-opacity:0;fill:#000;stroke:#000;stroke-linecap:square;stroke-width:2"/><line x1="545" x2="550" y1="200" y2="200" style="stroke:#000;stroke-linecap:square;stroke-width:2"/><text x="630" y="35" dominant-baseline="baseline" transform="rotate(0, 630, 35)" style="font-family:Arial;font-size:12px;text-anchor:middle">poly(3)</text><line x1="630" x2="630" y1="43" y2="60" style="stroke:#000;stroke-linecap:square;stroke-width:2"/><ellipse cx="630" cy="40" rx="3" ry="3" style="fill-opacity:0;fill:#000;stroke:#000;stroke-width:2"/><text x="460" y="35" dominant-baseline="baseline" transform="rotate(0, 460, 35)" style="font-family:Arial;font-size:12px;text-anchor:middle">poly(2)</text><line x1="460" x2="460" y1="43" y2="60" style="stroke:#000;stroke-linecap:square;stroke-width:2"/><ellipse cx="460" cy="40" rx="3" ry="3" style="fill-opacity:0;fill:#000;stroke:#000;stroke-width:2"/><line x1="460" x2="460" y1="60" y2="100" style="stroke:#000;stroke-linecap:square;stroke-width:2"/><line x1="630" x2="630" y1="60" y2="100" style="stroke:#000;stroke-linecap:square;stroke-width:2"/><line x1="140" x2="810" y1="90" y2="90" style="stroke:#000;stroke-linecap:square;stroke-width:2"/><line x1="650" x2="650" y1="90" y2="100" style="stroke:#000;stroke-linecap:square;stroke-width:2"/><line x1="810" x2="810" y1="90" y2="210" style="stroke:#000;stroke-linecap:square;stroke-width:2"/><line x1="480" x2="480" y1="90" y2="100" style="stroke:#000;stroke-linecap:square;stroke-width:2"/><ellipse cx="470" cy="210" rx="2" ry="2" style="fill-opacity:1;fill:#000;stroke:#000;stroke-width:2"/><ellipse cx="300" cy="210" rx="2" ry="2" style="fill-opacity:1;fill:#000;stroke:#000;stroke-width:2"/><ellipse cx="220" cy="280" rx="2" ry="2" style="fill-opacity:1;fill:#000;stroke:#000;stroke-width:2"/><ellipse cx="260" cy="300" rx="2" ry="2" style="fill-opacity:1;fill:#000;stroke:#000;stroke-width:2"/><ellipse cx="390" cy="280" rx="2" ry="2" style="fill-opacity:1;fill:#000;stroke:#000;stroke-width:2"/><ellipse cx="560" cy="280" rx="2" ry="2" style="fill-opacity:1;fill:#000;stroke:#000;stroke-width:2"/><ellipse cx="600" cy="300" rx="2" ry="2" style="fill-opacity:1;fill:#000;stroke:#000;stroke-width:2"/><ellipse cx="430" cy="300" rx="2" ry="2" style="fill-opacity:1;fill:#000;stroke:#000;stroke-width:2"/><ellipse cx="310" cy="90" rx="2" ry="2" style="fill-opacity:1;fill:#000;stroke:#000;stroke-width:2"/><ellipse cx="640" cy="210" rx="2" ry="2" style="fill-opacity:1;fill:#000;stroke:#000;stroke-width:2"/><ellipse cx="810" cy="210" rx="2" ry="2" style="fill-opacity:1;fill:#000;stroke:#000;stroke-width:2"/><ellipse cx="480" cy="90" rx="2" ry="2" style="fill-opacity:1;fill:#000;stroke:#000;stroke-width:2"/><ellipse cx="650" cy="90" rx="2" ry="2" style="fill-opacity:1;fill:#000;stroke:#000;stroke-width:2"/></svg>